<?xml version="1.0" encoding="UTF-8" standalone="no"?>
<!-- Created with Inkscape (http://www.inkscape.org/) -->

<svg
   version="1.1"
   id="svg23480"
   xml:space="preserve"
   width="800"
   height="800"
   viewBox="0 0 800 800"
   sodipodi:docname="dolphin-vector-publicdomainvectors.org.svg"
   inkscape:version="1.1.2 (b8e25be833, 2022-02-05)"
   xmlns:inkscape="http://www.inkscape.org/namespaces/inkscape"
   xmlns:sodipodi="http://sodipodi.sourceforge.net/DTD/sodipodi-0.dtd"
   xmlns="http://www.w3.org/2000/svg"
   xmlns:svg="http://www.w3.org/2000/svg"><defs
     id="defs23484"><clipPath
       clipPathUnits="userSpaceOnUse"
       id="clipPath23494"><path
         d="M 0,600 H 600 V 0 H 0 Z"
         id="path23492" /></clipPath></defs><sodipodi:namedview
     id="namedview23482"
     pagecolor="#ffffff"
     bordercolor="#666666"
     borderopacity="1.0"
     inkscape:pageshadow="2"
     inkscape:pageopacity="0.0"
     inkscape:pagecheckerboard="0"
     showgrid="false"
     inkscape:zoom="1.03875"
     inkscape:cx="400"
     inkscape:cy="400"
     inkscape:window-width="1920"
     inkscape:window-height="1018"
     inkscape:window-x="-8"
     inkscape:window-y="-8"
     inkscape:window-maximized="1"
     inkscape:current-layer="g23486" /><g
     id="g23486"
     inkscape:groupmode="layer"
     inkscape:label="dolphin-vector-publicdomainvectors.org"
     transform="matrix(1.3333333,0,0,-1.3333333,0,800)"><g
       id="g23488"><g
         id="g23490"
         clip-path="url(#clipPath23494)"><path
           d="m 524.082,415.279 c -0.261,3.565 -5.362,3.309 -6.037,0.154 -0.693,-3.251 -2.468,-6.48 -4.664,-9.736 l 11.273,-9.826 c -0.589,6.528 -0.101,12.972 -0.572,19.408"
           style="fill:#c32500;fill-opacity:1;fill-rule:nonzero;stroke:none"
           id="path23496" /><path
           d="m 522.591,312.551 -5.431,-13.738 c 2.847,4.56 4.84,9.073 5.431,13.738"
           style="fill:#abc38b;fill-opacity:1;fill-rule:nonzero;stroke:none"
           id="path23498" /><path
           d="m 517.16,298.813 5.431,13.738 c 0.828,6.534 -1.1,13.366 -7.307,21.038 15.585,7.788 16.905,23.946 13.379,42.733 l -30.838,0.756 c -2.551,-8.995 -4.314,-18.39 -4.167,-31.294 -1.039,0.431 -2.063,0.865 -3.079,1.3 l 23.623,-52.646 c 1.061,1.467 2.052,2.924 2.958,4.375"
           style="fill:#c8c46c;fill-opacity:1;fill-rule:nonzero;stroke:none"
           id="path23500" /><path
           d="m 525.935,388.284 c -0.665,2.544 -1.051,5.071 -1.281,7.587 l -11.273,9.826 c -4.508,-6.689 -10.797,-13.492 -13.173,-20.843 -0.843,-2.609 -1.645,-5.175 -2.383,-7.776 l 30.838,-0.756 c -0.728,3.891 -1.666,7.895 -2.728,11.962"
           style="fill:#ce620a;fill-opacity:1;fill-rule:nonzero;stroke:none"
           id="path23502" /><path
           d="m 418.079,335.349 c 13.023,-2.239 24.049,-6.156 38.846,-8.849 l 12.101,30.969 c -5.432,2.922 -10.539,5.902 -15.423,8.92 L 413.756,347.22 Z"
           style="fill:#dae262;fill-opacity:1;fill-rule:nonzero;stroke:none"
           id="path23504" /><path
           d="m 485.887,284.795 c 2.02,-5.606 0.963,-9.537 1.614,-15.778 0.286,-2.755 4.853,-2.4 6.824,0.308 6.249,8.584 13.116,16.105 18.538,23.301 l -27.881,-4.991 c 0.261,-0.936 0.562,-1.882 0.905,-2.84"
           style="fill:#74e0e0;fill-opacity:1;fill-rule:nonzero;stroke:none"
           id="path23506" /><path
           d="m 493.109,323.608 c -6.552,-10.087 -12.066,-21.802 -8.127,-35.973 l 27.881,4.991 c 0.457,0.605 0.905,1.21 1.339,1.812 l -23.623,52.646 c -7.807,3.348 -14.925,6.822 -21.553,10.385 L 456.925,326.5 c 9.832,-1.789 21.328,-3.037 36.184,-2.892"
           style="fill:#afdf7b;fill-opacity:1;fill-rule:nonzero;stroke:none"
           id="path23508" /><path
           d="m 453.603,366.389 c -16.332,10.09 -30.216,20.599 -45.763,30.718 l 5.916,-49.887 z"
           style="fill:#e88200;fill-opacity:1;fill-rule:nonzero;stroke:none"
           id="path23510" /><path
           d="m 406.894,336.81 c 1.388,-0.149 2.775,-0.303 4.165,-0.459 2.422,-0.272 4.751,-0.612 7.02,-1.002 l -4.323,11.871 z"
           style="fill:#dcf07c;fill-opacity:1;fill-rule:nonzero;stroke:none"
           id="path23512" /><path
           d="m 413.756,347.22 -5.916,49.887 c -2.747,1.788 -5.549,3.565 -8.424,5.324 L 377.96,360.019 Z"
           style="fill:#f38900;fill-opacity:1;fill-rule:nonzero;stroke:none"
           id="path23514" /><path
           d="m 374.378,416.31 c -1.773,0.88 -3.54,1.739 -5.306,2.574 l 1.728,-14.173 z"
           style="fill:#ef3500;fill-opacity:1;fill-rule:nonzero;stroke:none"
           id="path23516" /><path
           d="m 387.27,409.52 c -4.319,2.399 -8.617,4.661 -12.892,6.79 L 370.8,404.711 Z"
           style="fill:#f43800;fill-opacity:1;fill-rule:nonzero;stroke:none"
           id="path23518" /><path
           d="m 377.96,360.019 21.456,42.412 c -0.552,0.339 -1.107,0.677 -1.666,1.014 -3.507,2.116 -7,4.139 -10.48,6.075 l -16.47,-4.809 z"
           style="fill:#f77700;fill-opacity:1;fill-rule:nonzero;stroke:none"
           id="path23520" /><path
           d="m 377.96,360.019 1.011,-20.779 c 9.278,-0.565 18.596,-1.422 27.923,-2.43 l 6.862,10.41 z"
           style="fill:#f2da4a;fill-opacity:1;fill-rule:nonzero;stroke:none"
           id="path23522" /><path
           d="m 370.8,404.711 -1.728,14.173 c -22.199,10.516 -43.813,17.434 -64.642,21.299 l -7.826,-11.391 z"
           style="fill:#fb6100;fill-opacity:1;fill-rule:nonzero;stroke:none"
           id="path23524" /><path
           d="m 304.43,440.183 c -2.889,0.534 -5.762,1.011 -8.62,1.431 l 0.794,-12.822 z"
           style="fill:#f55a00;fill-opacity:1;fill-rule:nonzero;stroke:none"
           id="path23526" /><path
           d="m 290.962,375.639 9.753,-42.015 c 20.134,5.152 40.939,6.692 62.044,6.282 l 15.201,20.113 z"
           style="fill:#ffd100;fill-opacity:1;fill-rule:nonzero;stroke:none"
           id="path23528" /><path
           d="m 362.759,339.906 c 5.386,-0.104 10.793,-0.336 16.212,-0.666 l -1.011,20.779 z"
           style="fill:#f9ed2d;fill-opacity:1;fill-rule:nonzero;stroke:none"
           id="path23530" /><path
           d="m 377.96,360.019 -7.16,44.692 -79.838,-29.072 z"
           style="fill:#fd9d00;fill-opacity:1;fill-rule:nonzero;stroke:none"
           id="path23532" /><path
           d="m 370.8,404.711 -74.196,24.081 -5.642,-53.153 z"
           style="fill:#ff9300;fill-opacity:1;fill-rule:nonzero;stroke:none"
           id="path23534" /><path
           d="m 250.198,311.054 c 16.177,10.947 33.096,18.112 50.517,22.57 l -9.753,42.015 z"
           style="fill:#ffce00;fill-opacity:1;fill-rule:nonzero;stroke:none"
           id="path23536" /><path
           d="m 231.221,215.358 c 19.271,8.4 35.441,23.296 43.404,38.519 l -10.974,13.762 c -11.825,-5.926 -22.671,-8.912 -32.471,-8.761 l -11.161,-43.13 z"
           style="fill:#f0d03c;fill-opacity:1;fill-rule:nonzero;stroke:none"
           id="path23538" /><path
           d="m 279.667,277.043 c -5.521,-3.683 -10.861,-6.822 -16.016,-9.404 l 10.974,-13.762 c 4.145,7.925 6.067,15.937 5.042,23.166"
           style="fill:#f6e63a;fill-opacity:1;fill-rule:nonzero;stroke:none"
           id="path23540" /><path
           d="m 296.604,428.792 -0.794,12.822 c -16.002,2.351 -31.514,2.906 -46.446,1.922 l -18.931,-22.77 z"
           style="fill:#fb6800;fill-opacity:1;fill-rule:nonzero;stroke:none"
           id="path23542" /><path
           d="m 224.548,212.758 c 2.259,0.777 4.487,1.647 6.673,2.6 l -11.202,0.39 z"
           style="fill:#c7df6f;fill-opacity:1;fill-rule:nonzero;stroke:none"
           id="path23544" /><path
           d="m 200.494,352.643 36.727,-51.34 c 4.269,3.542 8.596,6.784 12.977,9.751 l 40.764,64.585 z"
           style="fill:#feb200;fill-opacity:1;fill-rule:nonzero;stroke:none"
           id="path23546" /><path
           d="m 249.364,443.536 c -7.218,-0.476 -14.299,-1.311 -21.234,-2.478 l 2.303,-20.292 z"
           style="fill:#f35c00;fill-opacity:1;fill-rule:nonzero;stroke:none"
           id="path23548" /><path
           d="m 218.321,210.879 c 2.099,0.546 4.177,1.174 6.227,1.879 l -4.529,2.99 z"
           style="fill:#d3bf53;fill-opacity:1;fill-rule:nonzero;stroke:none"
           id="path23550" /><path
           d="m 296.604,428.792 -66.171,-8.026 60.529,-45.127 z"
           style="fill:#ff8500;fill-opacity:1;fill-rule:nonzero;stroke:none"
           id="path23552" /><path
           d="m 230.433,420.766 -29.939,-68.123 90.468,22.996 z"
           style="fill:#fe9400;fill-opacity:1;fill-rule:nonzero;stroke:none"
           id="path23554" /><path
           d="m 228.13,441.058 c -6.559,-1.104 -12.984,-2.503 -19.273,-4.174 l 21.576,-16.118 z"
           style="fill:#f04f00;fill-opacity:1;fill-rule:nonzero;stroke:none"
           id="path23556" /><path
           d="m 210.086,454.16 c 6.122,7.008 10.358,15.226 9.142,21.901 -0.857,4.702 -3.774,6.154 -6.862,6.157 -1.851,0.003 -3.764,-0.514 -5.332,-1.166 -12.886,-5.355 -23.059,-11.949 -31.318,-19.41 l 31.328,-23.405 c -0.724,7.915 -0.222,12.187 3.042,15.923"
           style="fill:#f04f00;fill-opacity:1;fill-rule:nonzero;stroke:none"
           id="path23558" /><path
           d="m 208.857,436.884 c -0.545,-0.146 -1.091,-0.292 -1.635,-0.442 -0.065,0.621 -0.124,1.217 -0.178,1.795 l -31.328,23.405 c -13.121,-11.855 -21.402,-25.906 -28.011,-40.679 l 82.728,-0.197 z"
           style="fill:#f64e00;fill-opacity:1;fill-rule:nonzero;stroke:none"
           id="path23560" /><path
           d="m 220.019,215.748 11.161,43.13 c -9.404,0.145 -17.845,3.178 -25.262,9.282 8.212,10.851 16.735,20.16 25.524,28.127 l -69.782,0.383 z"
           style="fill:#fb9b00;fill-opacity:1;fill-rule:nonzero;stroke:none"
           id="path23562" /><path
           d="m 161.66,296.67 69.782,-0.383 c 1.914,1.735 3.841,3.407 5.779,5.016 l -36.727,51.34 z"
           style="fill:#ffa300;fill-opacity:1;fill-rule:nonzero;stroke:none"
           id="path23564" /><path
           d="m 230.433,420.766 -82.728,0.197 c -0.915,-2.043 -1.796,-4.101 -2.655,-6.168 l 55.444,-62.152 z"
           style="fill:#fd7700;fill-opacity:1;fill-rule:nonzero;stroke:none"
           id="path23566" /><path
           d="M 220.019,215.748 161.66,296.67 131.069,220.303 Z"
           style="fill:#f56500;fill-opacity:1;fill-rule:nonzero;stroke:none"
           id="path23568" /><path
           d="m 131.069,220.303 37.105,-26.139 c 2.514,6.475 5.055,12.711 7.816,18.565 13.973,-5.432 28.604,-5.419 42.331,-1.85 l 1.698,4.869 z"
           style="fill:#e07000;fill-opacity:1;fill-rule:nonzero;stroke:none"
           id="path23570" /><path
           d="M 200.494,352.643 137.795,346.135 161.66,296.67 Z"
           style="fill:#ff8800;fill-opacity:1;fill-rule:nonzero;stroke:none"
           id="path23572" /><path
           d="m 200.494,352.643 -55.444,62.152 c -1.222,-2.943 -2.399,-5.907 -3.55,-8.88 -0.79,-0.538 -1.575,-1.081 -2.357,-1.627 l -1.348,-58.153 z"
           style="fill:#fd7400;fill-opacity:1;fill-rule:nonzero;stroke:none"
           id="path23574" /><path
           d="m 141.436,137.496 c 2.542,2.025 4.711,4.564 6.272,7.589 1.853,3.591 3.583,7.211 5.219,10.836 l -18.603,-4.825 z"
           style="fill:#c22c00;fill-opacity:1;fill-rule:nonzero;stroke:none"
           id="path23576" /><path
           d="m 134.324,151.096 18.603,4.825 c 5.852,12.97 10.503,26.032 15.247,38.243 l -37.105,26.139 z"
           style="fill:#d54200;fill-opacity:1;fill-rule:nonzero;stroke:none"
           id="path23578" /><path
           d="m 137.795,346.135 1.348,58.153 c -8.103,-5.661 -15.751,-11.767 -22.894,-18.227 L 94.405,353.294 Z"
           style="fill:#fa6200;fill-opacity:1;fill-rule:nonzero;stroke:none"
           id="path23580" /><path
           d="m 161.66,296.67 -23.865,49.465 -50.333,-39.92 z"
           style="fill:#ff7200;fill-opacity:1;fill-rule:nonzero;stroke:none"
           id="path23582" /><path
           d="m 131.069,220.303 30.591,76.367 -74.198,9.545 z"
           style="fill:#fc6300;fill-opacity:1;fill-rule:nonzero;stroke:none"
           id="path23584" /><path
           d="m 105.824,144.432 c 5.093,-14.695 24.146,-16.064 35.612,-6.936 l -7.112,13.6 z"
           style="fill:#be0006;fill-opacity:1;fill-rule:nonzero;stroke:none"
           id="path23586" /><path
           d="m 87.462,306.215 -0.204,-92.541 c 1.111,-1.537 2.265,-3.057 3.469,-4.554 l 40.342,11.183 z"
           style="fill:#f23700;fill-opacity:1;fill-rule:nonzero;stroke:none"
           id="path23588" /><path
           d="M 131.069,220.303 90.727,209.12 c 2.365,-2.945 4.91,-5.81 7.638,-8.586 4.728,-4.807 8.011,-10.067 9.068,-16.846 l 26.891,-32.592 z"
           style="fill:#db2f00;fill-opacity:1;fill-rule:nonzero;stroke:none"
           id="path23590" /><path
           d="m 137.795,346.135 -43.39,7.159 -6.943,-47.079 z"
           style="fill:#fa6800;fill-opacity:1;fill-rule:nonzero;stroke:none"
           id="path23592" /><path
           d="m 116.249,386.061 c -0.549,-0.498 -1.097,-0.998 -1.641,-1.499 -7.148,-6.589 -13.569,-13.737 -19.221,-21.297 l -0.982,-9.971 z"
           style="fill:#f64d00;fill-opacity:1;fill-rule:nonzero;stroke:none"
           id="path23594" /><path
           d="m 107.433,183.688 c 0.528,-3.388 0.502,-7.154 -0.183,-11.436 l -2.229,-13.857 c -0.89,-5.561 -0.501,-10.198 0.803,-13.963 l 28.5,6.664 z"
           style="fill:#ca1500;fill-opacity:1;fill-rule:nonzero;stroke:none"
           id="path23596" /><path
           d="M 68.723,303.791 C 62.687,272.439 68.12,240.179 87.258,213.674 l 0.204,92.541 z"
           style="fill:#f24600;fill-opacity:1;fill-rule:nonzero;stroke:none"
           id="path23598" /><path
           d="m 90.18,355.852 c -0.943,-1.431 -1.859,-2.874 -2.75,-4.328 l 6.975,1.77 z"
           style="fill:#e94c00;fill-opacity:1;fill-rule:nonzero;stroke:none"
           id="path23600" /><path
           d="m 94.405,353.294 0.982,9.971 c -1.816,-2.431 -3.552,-4.904 -5.207,-7.413 z"
           style="fill:#ed4100;fill-opacity:1;fill-rule:nonzero;stroke:none"
           id="path23602" /><path
           d="m 94.405,353.294 -6.975,-1.77 C 80.551,340.285 75.266,328.361 71.712,316.16 l 15.75,-9.945 z"
           style="fill:#f55e00;fill-opacity:1;fill-rule:nonzero;stroke:none"
           id="path23604" /><path
           d="m 71.712,316.16 c -1.193,-4.097 -2.191,-8.225 -2.989,-12.369 l 18.739,2.424 z"
           style="fill:#f15700;fill-opacity:1;fill-rule:nonzero;stroke:none"
           id="path23606" /></g></g></g></svg>
